<svg viewBox="0 0 945 200" xmlns="http://www.w3.org/2000/svg" xmlns:xlink="http://www.w3.org/1999/xlink">
  <clipPath id="a">
    <path clip-rule="evenodd" d="m90 418.5h612v-154.34h-612z"/>
  </clipPath>
  <g fill="#1a1a1a" transform="matrix(.99955986 -.02966624 .02966624 .99955986 -1.010441 22.020221)">
    <g clip-path="url(#a)" stroke-width=".117461" transform="matrix(1.1749441 0 0 -1.1939732 398.76017 488.27785)">
      <path d="m405.13811 279.65402c35.31374 2.83234 58.94954 28.50977 58.94954 62.93045.005-3.74714-.33047-7.49409-1.00396-11.181 1.65385 9.05368 1.26441 18.4694-1.13196 27.36103-2.39675 8.89302-6.80106 17.26183-12.79857 24.31975-5.99752 7.0579-13.58824 12.80495-22.0583 16.70031-8.47008 3.89534-17.81949 5.93902-27.16891 5.93902s-18.69883-2.04368-27.1689-5.93902c-8.47007-3.89536-16.06077-9.64241-22.05829-16.70031-5.99753-7.05792-10.40184-15.42673-12.79811-24.31977-1.19813-4.44651-1.89426-9.0241-2.08371-13.62194-.0352-.8546-.0527-1.70741-.0527-2.55807 0-34.42068 23.6358-60.09811 58.94955-62.93045v38.68543c-22.43665 2.74331-37.05951 19.44451-37.05951 41.28053 0 24.36751 17.50949 41.59795 42.27166 41.59795s42.27166-17.23044 42.27166-41.59795c0-21.83602-14.62286-38.53722-37.0595-41.28053z"/>
      <path d="m435.6704 359.61998a35.744443 35.174762 0 1 1 -71.48888 0 35.744443 35.174762 0 1 1 71.48888 0z" fill="#69c"/>
    </g>
    <g transform="matrix(11.348464 0 0 11.348464 -5570.7441 -1603.2169)">
      <path d="m498.35834 156.446q0 .54143-.25515 1.0704-.24893.52898-.70323.89615-.49786.39829-1.16375.62232-.65966.22404-1.59315.22404-1.00194 0-1.80474-.1867-.79657-.1867-1.62426-.55387v-1.54336h.0871q.70323.58498 1.62427.90237.92104.31738 1.73006.31738 1.14508 0 1.77985-.4294.64099-.4294.64099-1.14508 0-.6161-.30494-.90859-.29871-.29249-.91481-.4543-.46675-.12446-1.01439-.20536-.54142-.0809-1.1513-.20537-1.2322-.26138-1.82964-.88992-.5912-.63477-.5912-1.64916 0-1.16375.98327-1.90431.98327-.74679 2.49552-.74679.97705 0 1.79229.18669.81525.1867 1.44379.46052v1.45624h-.0871q-.52898-.44807-1.39401-.74056-.8588-.29872-1.76117-.29872-.9895 0-1.59315.41073-.59744.41074-.59744 1.05796 0 .57876.29872.90859.29872.32983 1.05173.50408.39829.0871 1.13263.21159.73434.12447 1.24465.25515 1.03305.27383 1.55581.8277.52275.55386.52275 1.54958z"/>
      <path d="m501.50108 150.97577h-1.31933v-1.21353h1.31933zm-.0747 8.11511h-1.16997v-6.95136h1.16997z"/>
      <path d="m513.88533 159.09088h-1.16997v-3.95798q0-.44807-.0436-.86503-.0373-.41696-.16803-.66589-.14314-.2676-.41074-.40451-.26759-.13691-.77168-.13691-.49163 0-.98327.24893-.49164.24271-.98327.62232.0187.14314.0311.33606.0125.1867.0125.37339v4.44962h-1.16997v-3.95798q0-.46052-.0436-.87125-.0373-.41696-.16803-.66589-.14313-.2676-.41073-.39829-.2676-.13691-.77169-.13691-.47918 0-.9646.23648-.47919.23649-.95838.60366v5.19018h-1.16997v-6.95136h1.16997v.77168q.54765-.4543 1.08907-.70945.54765-.25515 1.16375-.25515.70945 0 1.20108.29871.49786.29872.74057.8277.70945-.59744 1.29443-.85881.58499-.2676 1.25087-.2676 1.14508 0 1.6865.697.54765.69078.54765 1.93543z"/>
      <path d="m522.25559 155.53119q0 .84636-.24271 1.54958-.2427.69701-.68455 1.18242-.41074.46052-.97083.71567-.55387.24893-1.17619.24893-.54143 0-.98328-.11824-.43562-.11824-.88992-.36717v2.91248h-1.16997v-9.51534h1.16997v.72812q.46674-.39207 1.04551-.65344.58498-.2676 1.24464-.2676 1.2571 0 1.9541.95216.70323.94593.70323 2.63243zm-1.20731.0311q0-1.25709-.4294-1.87942-.42941-.62232-1.31933-.62232-.50408 0-1.01439.21781-.51031.21782-.97705.57254v3.93931q.49786.22404.85259.30494.36094.0809.81524.0809.97705 0 1.52469-.65966.54765-.65966.54765-1.9541z"/>
      <path d="m525.26142 159.09088h-1.16997v-9.68336h1.16997z"/>
      <path d="m528.83355 150.97577h-1.31932v-1.21353h1.31932zm-.0747 8.11511h-1.16997v-6.95136h1.16997z"/>
      <path d="m536.21432 158.65525q-.58498.28005-1.11396.43563-.52275.15558-1.11396.15558-.75301 0-1.38156-.21781-.62855-.22404-1.07662-.67211-.4543-.44807-.70323-1.13263-.24893-.68456-.24893-1.59937 0-1.70517.93349-2.676.93971-.97082 2.47685-.97082.59743 0 1.16997.16802.57876.16803 1.05795.41074v1.30065h-.0622q-.5352-.41695-1.10774-.64099-.56631-.22404-1.10774-.22404-.99571 0-1.57448.67211-.57253.66589-.57253 1.96033 0 1.25709.56009 1.93542.56631.67211 1.58692.67211.35473 0 .7219-.0933.36717-.0933.65966-.24271.25516-.13069.47919-.27382.22404-.14936.35473-.25516h.0622z"/>
      <path d="m538.97122 150.97577h-1.31933v-1.21353h1.31933zm-.0747 8.11511h-1.16997v-6.95136h1.16997z"/>
      <path d="m547.36015 151.21226-4.19447 7.87862h-1.33177l4.46206-8.17734h-5.27731v-1.08907h6.34149z" fill="#69c"/>
      <path d="m555.3259 152.13952-4.05756 9.51534h-1.25087l1.29444-2.90003-2.76935-6.61531h1.26954l2.13458 5.15284 2.15324-5.15284z"/>
    </g>
  </g>
</svg>
