<svg xmlns="http://www.w3.org/2000/svg" xml:space="preserve" viewBox="0 0 157.1275 158.4425">
  <defs>
    <clipPath id="a" clipPathUnits="userSpaceOnUse">
      <path d="M90 418.5h612V264.16H90V418.5z" clip-rule="evenodd"/>
    </clipPath>
    <clipPath id="b" clipPathUnits="userSpaceOnUse">
      <path d="M0 684h792V0H0v684Z"/>
    </clipPath>
    <clipPath id="c" clipPathUnits="userSpaceOnUse">
      <path d="M.06 684h792V0H.06v684z"/>
    </clipPath>
  </defs>
  <g clip-path="url(#a)" transform="matrix(1.25 0 0 -1.25 -416.7725 509.64875)">
    <g clip-path="url(#b)">
      <g clip-path="url(#c)">
        <path fill="#231f20" stroke="#231f20" stroke-miterlimit="3.86400008" stroke-width=".70200002" d="M333.769 344.869c0 34.518 27.981 62.499 62.499 62.499 34.519 0 62.501-27.981 62.501-62.499 0-34.519-27.982-62.501-62.501-62.501-34.518 0-62.499 27.982-62.499 62.501z"/>
        <path fill="#fff" d="M354.316 361.668c0 22.48 18.38 40.703 41.053 40.703 22.674 0 41.054-18.223 41.054-40.703 0-22.48-18.38-40.702-41.054-40.702-22.673 0-41.053 18.222-41.053 40.702"/>
        <path fill="#231f20" d="M361.334 362.019c0 18.798 15.238 34.036 34.035 34.036 18.798 0 34.036-15.238 34.036-34.036 0-18.797-15.238-34.036-34.036-34.036-18.797 0-34.035 15.239-34.035 34.036"/>
        <path fill="none" stroke="#fff" stroke-miterlimit="3.86400008" stroke-width="10.52600002" d="M394.656 325.344v-44.379"/>
      </g>
    </g>
  </g>
</svg>
